# xmcd CD database file
#
# Track frame offsets:
#	150
#	22722
#	48330
#	69575
#	93660
#	121472
#	146885
#	169722
#	202567
#
# Disc length: 3054 seconds
#
# Revision: 0
# Processed by: cddbd v1.5.2PL0 Copyright (c) Steve Scherf et al.
# Submitted via: CDex 1.70beta2
#
DISCID=730bec09
DTITLE=Tim Cunningham and Four of a Kind - Sax Change Operation
DYEAR=1990
DGENRE=Jazz
TTITLE0=Sax Change Operation
TTITLE1=Truly
TTITLE2=DAT Groove
TTITLE3=Daddy's Dance
TTITLE4=Love You Down
TTITLE5=Buuuustin!!!
TTITLE6=Forever We
TTITLE7=Business Before Pleasure
TTITLE8=Mr. Magic
EXTD=YEAR: 1990
EXTT0=
EXTT1=
EXTT2=
EXTT3=
EXTT4=
EXTT5=
EXTT6=
EXTT7=
EXTT8=
PLAYORDER=
